<?xml version="1.0" encoding="UTF-8" standalone="no"?>
<!-- Created with Inkscape (http://www.inkscape.org/) -->
<svg
   xmlns:dc="http://purl.org/dc/elements/1.1/"
   xmlns:cc="http://web.resource.org/cc/"
   xmlns:rdf="http://www.w3.org/1999/02/22-rdf-syntax-ns#"
   xmlns:svg="http://www.w3.org/2000/svg"
   xmlns="http://www.w3.org/2000/svg"
   xmlns:sodipodi="http://sodipodi.sourceforge.net/DTD/sodipodi-0.dtd"
   xmlns:inkscape="http://www.inkscape.org/namespaces/inkscape"
   width="744.09448"
   height="737.35999"
   id="svg2210"
   sodipodi:version="0.32"
   inkscape:version="0.45pre1"
   version="1.0"
   sodipodi:docname="Басовый ключ.svg"
   inkscape:output_extension="org.inkscape.output.svg.inkscape"
   sodipodi:docbase="G:\Temp"
   sodipodi:modified="true">
  <defs
     id="defs2212" />
  <sodipodi:namedview
     id="base"
     pagecolor="#ffffff"
     bordercolor="#666666"
     borderopacity="1.0"
     gridtolerance="10000"
     guidetolerance="10"
     objecttolerance="10"
     inkscape:pageopacity="0.0"
     inkscape:pageshadow="2"
     inkscape:zoom="0.35"
     inkscape:cx="635.29724"
     inkscape:cy="214.05903"
     inkscape:document-units="px"
     inkscape:current-layer="layer1"
     height="737.36px"
     width="744.09448px"
     inkscape:window-width="880"
     inkscape:window-height="573"
     inkscape:window-x="575"
     inkscape:window-y="130" />
  <metadata
     id="metadata2215">
    <rdf:RDF>
      <cc:Work
         rdf:about="">
        <dc:format>image/svg+xml</dc:format>
        <dc:type
           rdf:resource="http://purl.org/dc/dcmitype/StillImage" />
      </cc:Work>
    </rdf:RDF>
  </metadata>
  <g
     inkscape:label="Layer 1"
     inkscape:groupmode="layer"
     id="layer1">
    <g
       style="overflow:visible"
       id="g2582"
       transform="translate(5289.8842,1126.6098)">
      <g
         id="g2584">
        <path
           d="M 214.623,62.616 C 218.175,62.648 221.535,63.992 221.791,66.968 C 221.983,69.144 219.103,71.128 215.551,71.128 C 211.967,71.096 208.639,69.784 208.351,66.808 C 208.159,64.6 211.07,62.616 214.623,62.616 z M 215.486,70.392 C 217.022,70.392 218.014,68.92 217.854,67.736 C 217.502,65.4 216.702,63.512 214.59,63.512 C 213.054,63.512 212.158,65.016 212.35,66.2 C 212.703,68.536 213.375,70.392 215.486,70.392 z "
           id="path2586" />
        <path
           d="M 215.375,36 L 214.767,36 L 214.767,11.552 L 215.375,11.552 L 215.375,36 z "
           id="path2588" />
      </g>
      <g
         id="g2590">
        <path
           d="M 218.182,101.029 L 218.898,99.735 L 219.492,99.735 L 219.82,104.923 L 219.242,104.923 C 218.804,103.43 218.287,102.349 217.692,101.681 C 216.933,100.832 216.063,100.407 215.082,100.407 C 214.329,100.407 213.654,100.621 213.059,101.048 C 212.463,101.475 212.006,102.116 211.688,102.97 C 211.37,103.824 211.211,105.027 211.211,106.576 C 211.211,108.08 211.37,109.256 211.689,110.104 C 212.008,110.952 212.448,111.577 213.009,111.978 C 213.57,112.379 214.229,112.579 214.984,112.579 C 216.007,112.579 216.799,112.292 217.358,111.719 C 217.917,111.146 218.196,110.406 218.196,109.499 L 218.196,108.279 C 218.196,108.086 218.121,107.937 217.971,107.832 C 217.822,107.727 217.576,107.674 217.236,107.674 L 216.134,107.674 L 216.134,107.065 L 221.587,107.065 L 221.587,107.674 L 220.847,107.674 C 220.518,107.674 220.283,107.732 220.142,107.846 C 220.001,107.96 219.931,108.126 219.931,108.343 L 219.931,113.315 L 219.353,113.315 C 219.143,112.541 218.924,111.798 218.696,111.088 C 218.257,111.809 217.734,112.35 217.127,112.711 C 216.521,113.071 215.834,113.252 215.066,113.252 C 213.97,113.252 212.955,112.971 212.021,112.408 C 211.087,111.845 210.348,111.054 209.806,110.031 C 209.264,109.008 208.993,107.853 208.993,106.564 C 208.993,105.269 209.265,104.109 209.809,103.084 C 210.353,102.059 211.098,101.245 212.043,100.641 C 212.988,100.037 213.943,99.736 214.909,99.736 C 215.459,99.736 215.984,99.829 216.485,100.013 C 216.983,100.197 217.55,100.536 218.182,101.029 z "
           id="path2592" />
      </g>
    </g>
    <path
       id="path11"
       d="M 35.850431,351.5992 L 700.0798,351.5992"
       style="fill:none;fill-rule:evenodd;stroke:#131516;stroke-width:7.24612236" />
    <path
       id="path13"
       d="M 35.850431,555.10617 L 702.78074,555.10617"
       style="fill:none;fill-rule:evenodd;stroke:#131516;stroke-width:7.24612236" />
    <path
       id="path15"
       d="M 35.850431,453.26653 L 700.0798,453.26653"
       style="fill:none;fill-rule:evenodd;stroke:#131516;stroke-width:7.24612236" />
    <path
       id="path17"
       d="M 35.850431,249.75956 L 697.37888,249.75956"
       style="fill:none;fill-rule:evenodd;stroke:#131516;stroke-width:7.24612236" />
    <path
       id="path19"
       d="M 35.850431,148.09224 L 697.37888,148.09224"
       style="fill:none;fill-rule:evenodd;stroke:#131516;stroke-width:7.24612236" />
    <path
       d="M 535.24274,197.30603 C 578.63487,197.69695 619.68151,214.1156 622.80886,250.47118 C 625.15438,277.05377 589.97156,301.29082 546.57943,301.29082 C 502.79637,300.8999 462.14065,284.87217 458.62238,248.51659 C 456.27686,221.54308 491.83838,197.30603 535.24274,197.30603 z M 545.78539,292.29965 C 564.54956,292.29965 576.6681,274.31732 574.71347,259.85327 C 570.41333,231.3161 560.64031,208.2518 534.8396,208.2518 C 516.07545,208.2518 505.12966,226.62505 507.47519,241.0891 C 511.78753,269.62628 519.99686,292.29965 545.78539,292.29965 z "
       id="path2665" />
    <text
       xml:space="preserve"
       style="font-size:63.13063431px;font-style:normal;font-weight:normal;fill:#000000;fill-opacity:1;stroke:none;stroke-width:1px;stroke-linecap:butt;stroke-linejoin:miter;stroke-opacity:1;font-family:Bitstream Vera Sans"
       x="466.97562"
       y="711.67511"
       id="text2700"><tspan
         sodipodi:role="line"
         id="tspan2702"
         x="466.97562"
         y="711.67511"
         style="font-size:189.39190674px;font-family:Times New Roman">F<tspan
   style="font-size:94.69595337px"
   id="tspan2704">М</tspan></tspan></text>
    <path
       style="fill:#131516;fill-rule:evenodd;stroke:#131516;stroke-width:0.54985368"
       id="path2433"
       d="M 92.436899,487.14689 C 121.43838,467.56419 143.09771,452.7399 157.04779,442.49102 C 170.99787,432.42515 185.68216,419.79705 200.73356,404.78975 C 215.78496,389.78245 228.45016,372.76198 238.72917,353.91135 C 246.80553,340.00214 253.78057,323.89675 259.47073,305.59516 C 265.16089,287.47659 268.09775,269.90707 268.64841,253.25263 C 268.64841,237.69628 266.62932,222.87199 262.40759,208.96279 C 258.36941,194.87057 251.39437,183.34057 241.48247,174.00676 C 231.57058,164.85597 218.72182,160.28057 202.75265,160.28057 C 187.33414,160.28057 172.83341,163.39184 159.25043,169.43137 C 145.85102,175.65391 136.30623,185.53676 130.98317,199.44596 C 130.98317,200.72708 130.24896,202.37422 129.14763,204.75343 C 129.51474,207.68168 130.98317,209.87787 133.73648,211.52501 C 136.48978,213.17216 138.87598,213.90422 141.07862,213.90422 C 142.17994,213.90422 145.30036,213.35517 150.07275,212.25708 C 155.0287,211.15898 159.06688,210.42692 162.37085,210.42692 C 172.09919,210.42692 180.72621,213.90422 188.61902,220.67581 C 196.32827,227.44739 200.1829,235.68311 200.1829,245.38294 C 200.1829,252.33755 198.16381,258.92612 194.30918,264.96564 C 190.45456,271.00516 185.1315,275.94659 178.34002,279.42389 C 171.54853,283.08421 164.02283,284.73135 155.94647,284.73135 C 141.26218,284.73135 128.78053,280.33897 118.50152,271.3712 C 108.40607,262.2204 103.26657,250.69041 103.26657,236.23215 C 103.26657,217.74755 108.95673,201.82517 120.15351,188.282 C 131.53383,174.73883 145.85102,164.67295 163.47217,157.90137 C 180.90976,150.94676 198.53092,147.65248 216.51917,147.65248 C 236.15942,147.65248 254.88189,152.59391 272.31949,162.65978 C 289.94064,172.54264 303.70716,186.26882 313.98616,203.2893 C 324.26517,220.49279 329.58823,238.79437 329.58823,258.56008 C 329.58823,293.69913 317.84079,326.27595 294.34592,356.47357 C 270.85106,386.67118 241.84958,412.84245 207.15794,435.17038 C 184.03018,450.3607 146.58523,470.85848 95.006659,496.66371 L 92.436899,487.14689 z M 347.39293,204.02136 C 347.39293,197.43279 349.77913,191.94231 354.55152,187.54994 C 359.14036,182.97454 364.83053,180.77835 371.62201,180.77835 C 377.49573,180.77835 383.00234,183.34057 387.95829,188.282 C 392.91424,193.04041 395.30044,198.7139 395.30044,204.93644 C 395.30044,211.52501 392.73068,217.1985 387.95829,221.7739 C 382.81878,226.16628 377.12862,228.36247 370.70425,228.36247 C 363.91276,228.36247 358.40615,226.16628 354.00086,221.22485 C 349.59557,216.46644 347.39293,210.79295 347.39293,204.02136 z M 347.39293,299.92167 C 347.39293,293.3331 349.77913,287.65961 354.18442,283.26723 C 358.77326,278.69183 364.46342,276.49564 371.62201,276.49564 C 377.49573,276.49564 382.81878,278.87485 387.95829,283.81627 C 392.73068,288.7577 395.30044,294.06516 395.30044,299.92167 C 395.30044,307.05929 392.91424,312.73278 388.32539,317.30818 C 383.553,321.88357 378.04639,324.26278 371.62201,324.26278 C 364.46342,324.26278 358.77326,321.88357 354.18442,317.49119 C 349.77913,313.09881 347.39293,307.2423 347.39293,299.92167 z "
       class="fil1 str1" />
  </g>
</svg>
