<?xml version="1.0" encoding="UTF-8" standalone="no"?>
<!-- Created with Inkscape (http://www.inkscape.org/) -->
<svg
   xmlns:dc="http://purl.org/dc/elements/1.1/"
   xmlns:cc="http://web.resource.org/cc/"
   xmlns:rdf="http://www.w3.org/1999/02/22-rdf-syntax-ns#"
   xmlns:svg="http://www.w3.org/2000/svg"
   xmlns="http://www.w3.org/2000/svg"
   xmlns:sodipodi="http://sodipodi.sourceforge.net/DTD/sodipodi-0.dtd"
   xmlns:inkscape="http://www.inkscape.org/namespaces/inkscape"
   width="744.09448"
   height="737.35999"
   id="svg2210"
   sodipodi:version="0.32"
   inkscape:version="0.45pre1"
   sodipodi:modified="true"
   version="1.0">
  <defs
     id="defs2212">
	
	

		
		
	</defs>
  <sodipodi:namedview
     id="base"
     pagecolor="#ffffff"
     bordercolor="#666666"
     borderopacity="1.0"
     gridtolerance="10000"
     guidetolerance="10"
     objecttolerance="10"
     inkscape:pageopacity="0.0"
     inkscape:pageshadow="2"
     inkscape:zoom="0.35"
     inkscape:cx="635.29724"
     inkscape:cy="214.05903"
     inkscape:document-units="px"
     inkscape:current-layer="layer1"
     height="737.36px"
     width="744.09448px"
     inkscape:window-width="880"
     inkscape:window-height="573"
     inkscape:window-x="88"
     inkscape:window-y="116" />
  <metadata
     id="metadata2215">
    <rdf:RDF>
      <cc:Work
         rdf:about="">
        <dc:format>image/svg+xml</dc:format>
        <dc:type
           rdf:resource="http://purl.org/dc/dcmitype/StillImage" />
      </cc:Work>
    </rdf:RDF>
  </metadata>
  <g
     inkscape:label="Layer 1"
     inkscape:groupmode="layer"
     id="layer1">
    <g
       style="overflow:visible"
       id="g2582"
       transform="translate(5289.8842,1126.6098)">
	<g
   id="g2584">
		<path
   d="M 214.623,62.616 C 218.175,62.648 221.535,63.992 221.791,66.968 C 221.983,69.144 219.103,71.128 215.551,71.128 C 211.967,71.096 208.639,69.784 208.351,66.808 C 208.159,64.6 211.07,62.616 214.623,62.616 z M 215.486,70.392 C 217.022,70.392 218.014,68.92 217.854,67.736 C 217.502,65.4 216.702,63.512 214.59,63.512 C 213.054,63.512 212.158,65.016 212.35,66.2 C 212.703,68.536 213.375,70.392 215.486,70.392 z "
   id="path2586" />

		<path
   d="M 215.375,36 L 214.767,36 L 214.767,11.552 L 215.375,11.552 L 215.375,36 z "
   id="path2588" />

	</g>

	<g
   id="g2590">
		<path
   d="M 218.182,101.029 L 218.898,99.735 L 219.492,99.735 L 219.82,104.923 L 219.242,104.923 C 218.804,103.43 218.287,102.349 217.692,101.681 C 216.933,100.832 216.063,100.407 215.082,100.407 C 214.329,100.407 213.654,100.621 213.059,101.048 C 212.463,101.475 212.006,102.116 211.688,102.97 C 211.37,103.824 211.211,105.027 211.211,106.576 C 211.211,108.08 211.37,109.256 211.689,110.104 C 212.008,110.952 212.448,111.577 213.009,111.978 C 213.57,112.379 214.229,112.579 214.984,112.579 C 216.007,112.579 216.799,112.292 217.358,111.719 C 217.917,111.146 218.196,110.406 218.196,109.499 L 218.196,108.279 C 218.196,108.086 218.121,107.937 217.971,107.832 C 217.822,107.727 217.576,107.674 217.236,107.674 L 216.134,107.674 L 216.134,107.065 L 221.587,107.065 L 221.587,107.674 L 220.847,107.674 C 220.518,107.674 220.283,107.732 220.142,107.846 C 220.001,107.96 219.931,108.126 219.931,108.343 L 219.931,113.315 L 219.353,113.315 C 219.143,112.541 218.924,111.798 218.696,111.088 C 218.257,111.809 217.734,112.35 217.127,112.711 C 216.521,113.071 215.834,113.252 215.066,113.252 C 213.97,113.252 212.955,112.971 212.021,112.408 C 211.087,111.845 210.348,111.054 209.806,110.031 C 209.264,109.008 208.993,107.853 208.993,106.564 C 208.993,105.269 209.265,104.109 209.809,103.084 C 210.353,102.059 211.098,101.245 212.043,100.641 C 212.988,100.037 213.943,99.736 214.909,99.736 C 215.459,99.736 215.984,99.829 216.485,100.013 C 216.983,100.197 217.55,100.536 218.182,101.029 z "
   id="path2592" />

	</g>

</g>
    <g
       id="g2690"
       transform="translate(0,-31.428571)">
      <path
         style="fill:none;fill-rule:evenodd;stroke:#131516;stroke-width:7.24612236"
         d="M 35.850431,383.02777 L 700.0798,383.02777"
         id="path11" />
      <path
         style="fill:none;fill-rule:evenodd;stroke:#131516;stroke-width:7.24612236"
         d="M 35.850431,586.53474 L 702.78074,586.53474"
         id="path13" />
      <path
         style="fill:none;fill-rule:evenodd;stroke:#131516;stroke-width:7.24612236"
         d="M 35.850431,484.6951 L 700.0798,484.6951"
         id="path15" />
      <path
         style="fill:none;fill-rule:evenodd;stroke:#131516;stroke-width:7.24612236"
         d="M 35.850431,281.18813 L 697.37888,281.18813"
         id="path17" />
      <path
         style="fill:none;fill-rule:evenodd;stroke:#131516;stroke-width:7.24612236"
         d="M 35.850431,179.52081 L 697.37888,179.52081"
         id="path19" />
      <g
         id="g2686">
        <path
           id="path9"
           d="M 211.69588,433.34448 C 201.15897,436.27388 191.65848,442.82195 182.84894,452.81636 C 174.03939,462.98309 169.72099,474.18373 169.72099,486.24596 C 169.72099,493.82793 172.31203,502.4438 177.32138,511.57663 C 182.33073,520.88177 189.93112,527.60216 199.77708,531.91009 C 203.05907,532.59936 204.6137,534.32254 204.6137,536.73498 C 204.6137,537.59657 203.40454,538.45816 200.46803,539.14743 C 184.74904,535.18413 171.79382,526.74057 161.77512,514.16139 C 151.75642,501.4099 146.57433,486.93523 146.22886,470.39275 C 146.74707,452.64404 152.10189,436.10156 162.29333,420.93762 C 172.6575,405.60137 185.95819,394.74536 202.19539,388.36962 L 190.27659,327.1969 C 163.67522,349.25354 142.08319,372.17177 125.32778,396.29622 C 108.57237,420.24835 99.935561,446.2683 99.244616,474.35605 C 99.590089,486.93523 102.18113,499.16977 107.01775,510.88736 C 111.85436,522.77727 119.10928,533.46095 128.78251,543.28305 C 148.3017,562.75493 173.69392,572.92166 204.6137,573.95556 C 215.15061,573.26629 226.37846,571.3708 238.46999,568.26909 L 211.69588,433.34448 z M 224.13289,431.62131 L 251.07974,564.13347 C 277.68111,553.44978 290.9818,530.18692 290.9818,494.68951 C 289.42717,482.79961 285.97245,472.11592 280.09942,462.63846 C 274.39912,452.98868 266.79873,445.40671 257.1255,439.89255 C 247.45228,434.37839 236.5699,431.62131 224.13289,431.62131 z M 188.72197,252.41111 C 194.42226,248.96476 200.98624,242.93365 208.06842,234.49009 C 215.15061,226.21885 222.06005,216.39675 228.62403,205.36843 C 235.36074,194.16779 240.71556,182.79484 244.6885,171.24957 C 248.66143,159.87661 250.56153,149.02061 250.56153,139.02619 C 250.56153,134.71826 250.21606,130.41032 249.35237,126.61933 C 248.66143,120.4159 246.76133,115.59101 243.47934,112.31698 C 240.19736,109.21527 236.05169,107.49209 230.8696,107.49209 C 220.50543,107.49209 211.17767,113.86784 202.88634,126.61933 C 196.4951,137.64765 191.14027,150.74378 187.34008,165.56309 C 183.36715,180.55471 181.12158,195.37402 180.7761,210.36564 C 181.63978,227.42507 184.40356,241.38279 188.72197,252.41111 z M 177.83959,262.40552 C 170.06646,234.49009 165.74805,206.0577 164.88437,177.10836 C 165.05711,158.49807 166.95721,141.094 170.58467,124.89616 C 174.03939,108.69831 179.04874,94.740595 185.61272,82.67837 C 192.00396,70.616145 199.43161,61.483318 207.72295,55.279888 C 215.15061,49.765728 220.50543,46.83633 223.44194,46.83633 C 225.68751,46.83633 227.58761,47.697918 229.31497,49.248775 C 231.04234,50.799633 233.28791,53.384395 236.05169,56.830745 C 256.60729,85.952403 266.97147,121.10517 266.97147,162.11674 C 266.97147,181.58862 264.38042,200.54354 259.19834,219.49847 C 254.18899,238.28107 246.76133,256.20209 236.91537,272.91689 C 226.89667,289.80401 215.15061,304.45099 201.50445,317.03017 L 215.49608,384.92327 C 223.09647,384.06168 228.27856,383.37241 231.21507,383.37241 C 244.34302,383.37241 256.08909,386.12949 266.97147,391.64365 C 277.85385,397.15781 287.1816,404.56746 294.78199,414.04492 C 302.38239,423.35007 308.25542,434.03375 312.40109,446.09598 C 316.37402,458.1582 318.61959,470.73738 318.61959,483.83351 C 318.61959,504.16698 313.26477,522.77727 302.55512,539.49206 C 291.84548,556.20686 275.78101,568.4414 254.18899,576.36801 C 255.57088,584.81157 257.98918,597.04611 261.61664,612.727 C 265.07137,628.58021 267.66241,641.15939 269.38977,650.46453 C 271.11714,659.76968 271.80808,668.73019 271.80808,677.51838 C 271.80808,691.13146 268.52609,703.19369 261.96212,713.87737 C 255.2254,724.56106 246.24312,732.8323 234.84253,738.69109 C 223.61468,744.54989 211.17767,747.47929 197.70425,747.47929 C 178.70327,747.47929 162.12059,742.13744 147.95622,731.62608 C 133.79186,720.94239 126.19146,706.64004 125.50052,688.37438 C 126.01873,680.27546 127.91883,672.69349 131.37355,665.45616 C 134.82827,658.21882 139.49215,652.36003 145.53792,647.87977 C 151.41095,643.2272 158.49313,640.81475 166.61173,640.2978 C 173.34845,640.2978 179.73969,642.19329 185.78545,645.81196 C 191.65848,649.60295 196.4951,654.60015 200.12256,660.9759 C 203.57728,667.35165 205.47738,674.41667 205.47738,681.99864 C 205.47738,692.16537 202.02266,700.78124 195.11321,707.84626 C 188.20376,714.91128 179.39421,718.52995 168.8573,718.52995 L 164.88437,718.52995 C 171.62108,728.869 182.6762,734.21084 198.04972,734.21084 C 205.82285,734.21084 213.76872,732.48766 221.71458,729.38595 C 229.83318,726.11192 236.5699,721.80398 242.27019,716.28982 C 247.97048,710.77566 251.77068,704.91686 253.32531,698.71343 C 256.26182,691.64842 257.64371,681.82632 257.64371,669.59178 C 257.64371,661.32054 256.78003,653.0493 255.2254,644.77806 C 253.67078,636.67913 251.25247,625.82313 247.97048,612.38237 C 244.6885,599.11392 242.27019,588.77487 240.8883,581.70985 C 230.52413,584.29461 219.81448,585.67315 208.58663,585.67315 C 189.75839,585.67315 171.96656,581.88217 155.21114,574.12788 C 138.45573,566.37359 123.77316,555.68991 110.99068,541.90451 C 98.380935,528.11911 88.534972,512.61053 81.452788,495.03415 C 74.54334,477.63008 70.915879,459.36443 70.743143,440.4095 C 71.434088,422.83312 74.716076,405.946 80.934579,390.09279 C 87.153082,374.06726 95.098947,358.90332 104.94491,344.77329 C 114.79087,330.64325 124.98231,317.71944 135.51922,306.17417 C 146.22886,294.80121 160.22049,280.15423 177.83959,262.40552 z "
           style="fill:#131516;fill-rule:evenodd;stroke:#131516;stroke-width:0.51758015" />
        <path
           d="M 535.24274,430.7346 C 578.63487,431.12552 619.68151,447.54417 622.80886,483.89975 C 625.15438,510.48234 589.97156,534.71939 546.57943,534.71939 C 502.79637,534.32847 462.14065,518.30074 458.62238,481.94516 C 456.27686,454.97165 491.83838,430.7346 535.24274,430.7346 z M 545.78539,525.72822 C 564.54956,525.72822 576.6681,507.74589 574.71347,493.28184 C 570.41333,464.74467 560.64031,441.68037 534.8396,441.68037 C 516.07545,441.68037 505.12966,460.05362 507.47519,474.51767 C 511.78753,503.05485 519.99686,525.72822 545.78539,525.72822 z "
           id="path2665" />
      </g>
    </g>
    <text
       xml:space="preserve"
       style="font-size:63.13063431px;font-style:normal;font-weight:normal;fill:#000000;fill-opacity:1;stroke:none;stroke-width:1px;stroke-linecap:butt;stroke-linejoin:miter;stroke-opacity:1;font-family:Bitstream Vera Sans"
       x="466.97562"
       y="711.67511"
       id="text2700"><tspan
         sodipodi:role="line"
         id="tspan2702"
         x="466.97562"
         y="711.67511"
         style="font-size:189.39190674px;font-family:Times New Roman">G<tspan
   style="font-size:94.69595337px"
   id="tspan2704">1</tspan></tspan></text>
  </g>
</svg>
